<mxfile host="app.diagrams.net" agent="Mozilla/5.0 (Windows NT 10.0; Win64; x64) AppleWebKit/537.36 (KHTML, like Gecko) Chrome/138.0.0.0 Safari/537.36" version="28.0.7">
  <diagram name="Page-1" id="_CU3Sel6YOiOoaUWdYrc">
    <mxGraphModel dx="1042" dy="596" grid="1" gridSize="10" guides="1" tooltips="1" connect="1" arrows="1" fold="1" page="1" pageScale="1" pageWidth="827" pageHeight="1169" math="0" shadow="0">
      <root>
        <mxCell id="0" />
        <mxCell id="1" parent="0" />
        <mxCell id="oE6DcrQzLzYByGNDbN26-1" value="User" style="swimlane;whiteSpace=wrap;html=1;" vertex="1" parent="1">
          <mxGeometry x="120" y="40" width="200" height="1000" as="geometry" />
        </mxCell>
        <mxCell id="oE6DcrQzLzYByGNDbN26-6" style="edgeStyle=orthogonalEdgeStyle;rounded=0;orthogonalLoop=1;jettySize=auto;html=1;entryX=0.5;entryY=0;entryDx=0;entryDy=0;" edge="1" parent="oE6DcrQzLzYByGNDbN26-1" source="oE6DcrQzLzYByGNDbN26-4" target="oE6DcrQzLzYByGNDbN26-5">
          <mxGeometry relative="1" as="geometry" />
        </mxCell>
        <mxCell id="oE6DcrQzLzYByGNDbN26-4" value="Start" style="ellipse;whiteSpace=wrap;html=1;aspect=fixed;" vertex="1" parent="oE6DcrQzLzYByGNDbN26-1">
          <mxGeometry x="60" y="30" width="80" height="80" as="geometry" />
        </mxCell>
        <mxCell id="oE6DcrQzLzYByGNDbN26-33" style="edgeStyle=orthogonalEdgeStyle;rounded=0;orthogonalLoop=1;jettySize=auto;html=1;" edge="1" parent="oE6DcrQzLzYByGNDbN26-1" source="oE6DcrQzLzYByGNDbN26-5" target="oE6DcrQzLzYByGNDbN26-32">
          <mxGeometry relative="1" as="geometry" />
        </mxCell>
        <mxCell id="oE6DcrQzLzYByGNDbN26-5" value="Login ke laundry" style="rounded=1;whiteSpace=wrap;html=1;" vertex="1" parent="oE6DcrQzLzYByGNDbN26-1">
          <mxGeometry x="40" y="130" width="120" height="60" as="geometry" />
        </mxCell>
        <mxCell id="oE6DcrQzLzYByGNDbN26-32" value="Login ke laundry" style="rounded=1;whiteSpace=wrap;html=1;" vertex="1" parent="oE6DcrQzLzYByGNDbN26-1">
          <mxGeometry x="40" y="230" width="120" height="60" as="geometry" />
        </mxCell>
        <mxCell id="oE6DcrQzLzYByGNDbN26-21" value="ambil laundry" style="rounded=1;whiteSpace=wrap;html=1;" vertex="1" parent="oE6DcrQzLzYByGNDbN26-1">
          <mxGeometry x="40" y="760" width="120" height="60" as="geometry" />
        </mxCell>
        <mxCell id="oE6DcrQzLzYByGNDbN26-2" value="Kasir" style="swimlane;whiteSpace=wrap;html=1;" vertex="1" parent="1">
          <mxGeometry x="320" y="40" width="200" height="1000" as="geometry" />
        </mxCell>
        <mxCell id="oE6DcrQzLzYByGNDbN26-10" style="edgeStyle=orthogonalEdgeStyle;rounded=0;orthogonalLoop=1;jettySize=auto;html=1;" edge="1" parent="oE6DcrQzLzYByGNDbN26-2" source="oE6DcrQzLzYByGNDbN26-7" target="oE6DcrQzLzYByGNDbN26-9">
          <mxGeometry relative="1" as="geometry" />
        </mxCell>
        <mxCell id="oE6DcrQzLzYByGNDbN26-13" style="edgeStyle=orthogonalEdgeStyle;rounded=0;orthogonalLoop=1;jettySize=auto;html=1;" edge="1" parent="oE6DcrQzLzYByGNDbN26-2" source="oE6DcrQzLzYByGNDbN26-9" target="oE6DcrQzLzYByGNDbN26-11">
          <mxGeometry relative="1" as="geometry" />
        </mxCell>
        <mxCell id="oE6DcrQzLzYByGNDbN26-14" style="edgeStyle=orthogonalEdgeStyle;rounded=0;orthogonalLoop=1;jettySize=auto;html=1;entryX=0.5;entryY=0;entryDx=0;entryDy=0;" edge="1" parent="oE6DcrQzLzYByGNDbN26-2" source="oE6DcrQzLzYByGNDbN26-11" target="oE6DcrQzLzYByGNDbN26-12">
          <mxGeometry relative="1" as="geometry" />
        </mxCell>
        <mxCell id="oE6DcrQzLzYByGNDbN26-20" style="edgeStyle=orthogonalEdgeStyle;rounded=0;orthogonalLoop=1;jettySize=auto;html=1;" edge="1" parent="oE6DcrQzLzYByGNDbN26-2" source="oE6DcrQzLzYByGNDbN26-17" target="oE6DcrQzLzYByGNDbN26-19">
          <mxGeometry relative="1" as="geometry" />
        </mxCell>
        <mxCell id="oE6DcrQzLzYByGNDbN26-7" value="Input data pesanan user" style="rounded=1;whiteSpace=wrap;html=1;" vertex="1" parent="oE6DcrQzLzYByGNDbN26-2">
          <mxGeometry x="44" y="230" width="120" height="60" as="geometry" />
        </mxCell>
        <mxCell id="oE6DcrQzLzYByGNDbN26-9" value="Simpan pesanan" style="rounded=1;whiteSpace=wrap;html=1;" vertex="1" parent="oE6DcrQzLzYByGNDbN26-2">
          <mxGeometry x="44" y="330" width="120" height="60" as="geometry" />
        </mxCell>
        <mxCell id="oE6DcrQzLzYByGNDbN26-11" value="Hitung total harga" style="rounded=1;whiteSpace=wrap;html=1;" vertex="1" parent="oE6DcrQzLzYByGNDbN26-2">
          <mxGeometry x="44" y="430" width="120" height="60" as="geometry" />
        </mxCell>
        <mxCell id="oE6DcrQzLzYByGNDbN26-12" value="tampilkan harga ke user" style="rounded=1;whiteSpace=wrap;html=1;" vertex="1" parent="oE6DcrQzLzYByGNDbN26-2">
          <mxGeometry x="44" y="530" width="120" height="60" as="geometry" />
        </mxCell>
        <mxCell id="oE6DcrQzLzYByGNDbN26-17" value="ubah status&amp;nbsp;" style="rounded=1;whiteSpace=wrap;html=1;" vertex="1" parent="oE6DcrQzLzYByGNDbN26-2">
          <mxGeometry x="50" y="640" width="120" height="60" as="geometry" />
        </mxCell>
        <mxCell id="oE6DcrQzLzYByGNDbN26-19" value="kirim proses ke laundry" style="rounded=1;whiteSpace=wrap;html=1;" vertex="1" parent="oE6DcrQzLzYByGNDbN26-2">
          <mxGeometry x="50" y="770" width="120" height="60" as="geometry" />
        </mxCell>
        <mxCell id="oE6DcrQzLzYByGNDbN26-15" value="konfirmasi bayar" style="rounded=1;whiteSpace=wrap;html=1;" vertex="1" parent="oE6DcrQzLzYByGNDbN26-2">
          <mxGeometry x="-160" y="550" width="120" height="60" as="geometry" />
        </mxCell>
        <mxCell id="oE6DcrQzLzYByGNDbN26-16" style="edgeStyle=orthogonalEdgeStyle;rounded=0;orthogonalLoop=1;jettySize=auto;html=1;entryX=1;entryY=0.5;entryDx=0;entryDy=0;" edge="1" parent="oE6DcrQzLzYByGNDbN26-2" source="oE6DcrQzLzYByGNDbN26-12" target="oE6DcrQzLzYByGNDbN26-15">
          <mxGeometry relative="1" as="geometry" />
        </mxCell>
        <mxCell id="oE6DcrQzLzYByGNDbN26-23" style="edgeStyle=orthogonalEdgeStyle;rounded=0;orthogonalLoop=1;jettySize=auto;html=1;entryX=0;entryY=0.5;entryDx=0;entryDy=0;" edge="1" parent="oE6DcrQzLzYByGNDbN26-2" source="oE6DcrQzLzYByGNDbN26-15" target="oE6DcrQzLzYByGNDbN26-17">
          <mxGeometry relative="1" as="geometry">
            <Array as="points">
              <mxPoint x="-90" y="560" />
            </Array>
          </mxGeometry>
        </mxCell>
        <mxCell id="oE6DcrQzLzYByGNDbN26-3" value="Admin" style="swimlane;whiteSpace=wrap;html=1;" vertex="1" parent="1">
          <mxGeometry x="520" y="40" width="200" height="1000" as="geometry" />
        </mxCell>
        <mxCell id="oE6DcrQzLzYByGNDbN26-30" value="review laporan:&lt;div&gt;data pesanan&lt;/div&gt;&lt;div&gt;statistik layanan&lt;/div&gt;" style="rounded=1;whiteSpace=wrap;html=1;" vertex="1" parent="oE6DcrQzLzYByGNDbN26-3">
          <mxGeometry x="50" y="900" width="120" height="60" as="geometry" />
        </mxCell>
        <mxCell id="oE6DcrQzLzYByGNDbN26-35" value="proses" style="rounded=1;whiteSpace=wrap;html=1;" vertex="1" parent="oE6DcrQzLzYByGNDbN26-3">
          <mxGeometry x="40" y="640" width="120" height="60" as="geometry" />
        </mxCell>
        <mxCell id="oE6DcrQzLzYByGNDbN26-34" style="edgeStyle=orthogonalEdgeStyle;rounded=0;orthogonalLoop=1;jettySize=auto;html=1;entryX=0;entryY=0.5;entryDx=0;entryDy=0;" edge="1" parent="1" source="oE6DcrQzLzYByGNDbN26-32" target="oE6DcrQzLzYByGNDbN26-7">
          <mxGeometry relative="1" as="geometry" />
        </mxCell>
        <mxCell id="oE6DcrQzLzYByGNDbN26-31" style="edgeStyle=orthogonalEdgeStyle;rounded=0;orthogonalLoop=1;jettySize=auto;html=1;entryX=0;entryY=0.5;entryDx=0;entryDy=0;" edge="1" parent="1" source="oE6DcrQzLzYByGNDbN26-21" target="oE6DcrQzLzYByGNDbN26-30">
          <mxGeometry relative="1" as="geometry">
            <Array as="points">
              <mxPoint x="220" y="800" />
            </Array>
          </mxGeometry>
        </mxCell>
        <mxCell id="oE6DcrQzLzYByGNDbN26-22" style="edgeStyle=orthogonalEdgeStyle;rounded=0;orthogonalLoop=1;jettySize=auto;html=1;entryX=1;entryY=0.5;entryDx=0;entryDy=0;" edge="1" parent="1" source="oE6DcrQzLzYByGNDbN26-19" target="oE6DcrQzLzYByGNDbN26-21">
          <mxGeometry relative="1" as="geometry" />
        </mxCell>
        <mxCell id="oE6DcrQzLzYByGNDbN26-36" style="edgeStyle=orthogonalEdgeStyle;rounded=0;orthogonalLoop=1;jettySize=auto;html=1;entryX=0;entryY=0.5;entryDx=0;entryDy=0;" edge="1" parent="1" source="oE6DcrQzLzYByGNDbN26-17" target="oE6DcrQzLzYByGNDbN26-35">
          <mxGeometry relative="1" as="geometry" />
        </mxCell>
      </root>
    </mxGraphModel>
  </diagram>
</mxfile>
